<svg xmlns="http://www.w3.org/2000/svg" width="48" height="48" viewBox="0 0 48 48">
<style>
  .a{
    stroke-width:2;
    stroke:#47BB7F;
  }
</style>
  <g fill="none">
      <rect width="48" height="48" fill="#FFF"/>
      <path d="M33.1 37C33 37 32.9 37 32.8 37 32.6 37 32.3 37 32 37 31.7 36.9 31.3 36.9 30.7 36.7 30.1 36.6 29.6 36.5 29 36.3 28.4 36.1 27.7 35.8 26.8 35.4 26 35 25.2 34.6 24.4 34 23.5 33.5 22.6 32.9 21.6 32.1 20.6 31.3 19.6 30.4 18.6 29.4 17.6 28.4 16.7 27.4 15.9 26.4 15.1 25.4 14.5 24.5 14 23.6 13.4 22.8 13 22 12.6 21.2 12.2 20.3 11.9 19.6 11.7 19 11.5 18.4 11.4 17.9 11.3 17.3 11.1 16.7 11.1 16.3 11 16 11 15.7 11 15.4 11 15.2L11 14.9 14.6 11.3C14.8 11.1 15.1 11 15.4 11 15.8 11 16.1 11.2 16.3 11.5L19.4 15.8C19.6 16.1 19.7 16.3 19.7 16.6 19.7 17.1 19.5 17.4 19.2 17.7L16.6 20.4C18.1 22.5 19.8 24.5 21.7 26.3 23.6 28.2 25.5 29.9 27.6 31.4L30.3 28.8C30.6 28.5 30.9 28.3 31.4 28.3 31.7 28.3 32 28.4 32.2 28.6L36.5 31.6C36.8 31.9 37 32.2 37 32.6 37 32.9 36.9 33.2 36.7 33.4L33.1 37Z" fill="#47BB7F"/>
      <path d="M36 24C36 17.4 30.6 12 24 12" class="a"/>
      <path d="M32 24C32 19.6 28.4 16 24 16" class="a"/>
  </g>
</svg>
